# xmcd
#
# Track frame offsets: 
#        210
#        14195
#        29130
#        42445
#        57522
#        71825
#        85125
#        98855
#        113120
#        128285
#        142067
#        156302
#        168607
#        182127
#        197112
#        209730
#        223317
#        237552
#        251125
#        262395
#        277385
#
# Disc length: 3871 seconds
#
# Revision: 1
# Processed by: cddbd v1.5.2PL0 Copyright (c) Steve Scherf et al.
# Submitted via: ExactAudioCopy v0.99pb5
#
DISCID=6a0f1d15
DTITLE=Red Norvo - Jivin' The Jeep
DYEAR=1900
DGENRE=Jazz
TTITLE0=It All Begins And Ends With You 
TTITLE1=A Porter's Love Song To A Chambermaid
TTITLE2=I Know That You Know
TTITLE3=Picture Me Without You
TTITLE4=It Can Happen To You
TTITLE5=Now That Summer Has Gone
TTITLE6=It's Love I'm After
TTITLE7=Peter Piper
TTITLE8=When Is A Kiss Not A Kiss
TTITLE9=A Thousand Dreams Of You
TTITLE10=Smoke Dreams
TTITLE11=Slumming On Park Avenue
TTITLE12=I've Got My Love To Keep Me Warm
TTITLE13=Remember
TTITLE14=Liza
TTITLE15=I Would Do Anything For You
TTITLE16=Jivin' The Jeep
TTITLE17=Everyone's Wrong But Me
TTITLE18=Posin'
TTITLE19=The Morning After
TTITLE20=Do You Ever Think Of Me
EXTD=
EXTT0=
EXTT1=
EXTT2=
EXTT3=
EXTT4=
EXTT5=
EXTT6=
EXTT7=
EXTT8=
EXTT9=
EXTT10=
EXTT11=
EXTT12=
EXTT13=
EXTT14=
EXTT15=
EXTT16=
EXTT17=
EXTT18=
EXTT19=
EXTT20=
PLAYORDER=
